<svg width="370" height="134" viewBox="0 0 370 134" fill="none" xmlns="http://www.w3.org/2000/svg">
<mask id="mask0" mask-type="alpha" maskUnits="userSpaceOnUse" x="1" y="0" width="369" height="134">
<path d="M1.63078 3.71509C1.15218 2.11177 2.3531 0.5 4.02633 0.5H367C368.381 0.5 369.5 1.61929 369.5 3V131C369.5 132.381 368.381 133.5 367 133.5H4.02635C2.35312 133.5 1.15218 131.888 1.63078 130.285L20.223 68.0011C20.4179 67.3479 20.4179 66.6521 20.223 65.9989L1.63078 3.71509Z" fill="white" stroke="#D5D7E1"/>
</mask>
<g mask="url(#mask0)">
<path d="M1.63078 3.71509C1.15218 2.11177 2.3531 0.5 4.02633 0.5H367C368.381 0.5 369.5 1.61929 369.5 3V131C369.5 132.381 368.381 133.5 367 133.5H4.02635C2.35312 133.5 1.15218 131.888 1.63078 130.285L20.223 68.0011C20.4179 67.3479 20.4179 66.6521 20.223 65.9989L1.63078 3.71509Z" fill="white" stroke="#D5D7E1"/>
<path d="M180.892 -9.70001C190.718 -9.70001 199.152 -8.01335 206.192 -4.64001C213.378 -1.26668 218.732 3.27999 222.252 8.99999C225.918 14.72 227.752 21.0267 227.752 27.92C227.752 36.8667 225.185 44.3467 220.052 50.36C214.918 56.2267 207.878 60.3333 198.932 62.68C208.758 63.56 216.825 67.08 223.132 73.24C229.438 79.4 232.592 87.9067 232.592 98.76C232.592 107.267 230.392 114.967 225.992 121.86C221.738 128.753 215.578 134.253 207.512 138.36C199.445 142.32 189.912 144.3 178.912 144.3C158.672 144.3 142.685 137.187 130.952 122.96L146.572 108C151.558 112.987 156.472 116.653 161.312 119C166.152 121.2 171.505 122.3 177.372 122.3C185.292 122.3 191.598 120.1 196.292 115.7C201.132 111.153 203.552 105.067 203.552 97.44C203.552 88.9333 201.278 82.8467 196.732 79.18C192.332 75.5133 185.732 73.68 176.932 73.68H165.272L168.572 53.66H176.492C183.678 53.66 189.398 51.68 193.652 47.72C198.052 43.76 200.252 38.26 200.252 31.22C200.252 25.2067 198.272 20.5133 194.312 17.14C190.352 13.62 185.072 11.86 178.472 11.86C172.752 11.86 167.545 12.96 162.852 15.16C158.158 17.2133 153.465 20.44 148.772 24.84L134.472 9.21999C147.818 -3.39335 163.292 -9.70001 180.892 -9.70001Z" fill="#D5D7E1" fill-opacity="0.4"/>
</g>
</svg>
