<svg width="380" height="134" viewBox="0 0 380 134" fill="none" xmlns="http://www.w3.org/2000/svg">
<mask id="mask0" mask-type="alpha" maskUnits="userSpaceOnUse" x="1" y="0" width="379" height="134">
<path d="M1.63078 3.71509C1.15218 2.11177 2.3531 0.5 4.02633 0.5H357.765C358.87 0.5 359.844 1.2258 360.16 2.28492L379.265 66.2849C379.404 66.7515 379.404 67.2485 379.265 67.7151L360.16 131.715C359.844 132.774 358.87 133.5 357.765 133.5H4.02634C2.35311 133.5 1.15218 131.888 1.63078 130.285L20.223 68.0011C20.4179 67.3479 20.4179 66.6521 20.223 65.9989L1.63078 3.71509Z" fill="white" stroke="#D5D7E1"/>
</mask>
<g mask="url(#mask0)">
<path d="M1.63078 3.71509C1.15218 2.11177 2.3531 0.5 4.02633 0.5H357.765C358.87 0.5 359.844 1.2258 360.16 2.28492L379.265 66.2849C379.404 66.7515 379.404 67.2485 379.265 67.7151L360.16 131.715C359.844 132.774 358.87 133.5 357.765 133.5H4.02634C2.35311 133.5 1.15218 131.888 1.63078 130.285L20.223 68.0011C20.4179 67.3479 20.4179 66.6521 20.223 65.9989L1.63078 3.71509Z" fill="white" stroke="#D5D7E1"/>
<path d="M185.756 -9.70001C195.729 -9.70001 204.309 -7.86668 211.496 -4.20001C218.829 -0.533343 224.403 4.45333 228.216 10.76C232.029 17.0667 233.936 24.1067 233.936 31.88C233.936 40.24 232.103 48.3067 228.436 56.08C224.916 63.7067 218.976 72.2133 210.616 81.6C202.256 90.9867 190.009 103.38 173.876 118.78H237.236L234.156 141H141.976V120.32C160.749 101.253 174.169 87.1733 182.236 78.08C190.449 68.84 196.243 60.9933 199.616 54.54C203.136 47.94 204.896 41.12 204.896 34.08C204.896 27.3333 202.916 22.0533 198.956 18.24C195.143 14.4267 190.009 12.52 183.556 12.52C177.836 12.52 172.776 13.7667 168.376 16.26C164.123 18.6067 159.649 22.5667 154.956 28.14L137.796 14.5C150.263 -1.63335 166.249 -9.70001 185.756 -9.70001Z" fill="#D5D7E1" fill-opacity="0.4"/>
</g>
</svg>
