<svg width="370" height="134" viewBox="0 0 370 134" fill="none" xmlns="http://www.w3.org/2000/svg">
<mask id="mask0" mask-type="alpha" maskUnits="userSpaceOnUse" x="0" y="0" width="370" height="134">
<path d="M0.5 3C0.5 1.61929 1.61929 0.5 3 0.5H347.765C348.87 0.5 349.844 1.2258 350.16 2.28492L369.265 66.2849C369.404 66.7515 369.404 67.2485 369.265 67.7151L350.16 131.715C349.844 132.774 348.87 133.5 347.765 133.5H3.00001C1.61929 133.5 0.5 132.381 0.5 131V3Z" fill="white" stroke="#D5D7E1"/>
</mask>
<g mask="url(#mask0)">
<path d="M0.5 3C0.5 1.61929 1.61929 0.5 3 0.5H347.765C348.87 0.5 349.844 1.2258 350.16 2.28492L369.265 66.2849C369.404 66.7515 369.404 67.2485 369.265 67.7151L350.16 131.715C349.844 132.774 348.87 133.5 347.765 133.5H3.00001C1.61929 133.5 0.5 132.381 0.5 131V3Z" fill="white" stroke="#D5D7E1"/>
<path d="M214.057 -7.06001V141H186.337V21.32L153.337 41.34L141.017 22.42L189.197 -7.06001H214.057Z" fill="#D5D7E1" fill-opacity="0.4"/>
</g>
</svg>
