<svg width="48" height="48" viewBox="0 0 48 48" fill="none" xmlns="http://www.w3.org/2000/svg">
<circle cx="24" cy="24" r="24" fill="white"/>
<path d="M25.1495 15.3827C25.1495 15.6082 25.1502 16.1284 25.9575 16.3376V14.4277C25.1502 14.637 25.1495 15.1572 25.1495 15.3827Z" fill="#0073BE"/>
<path d="M27.6226 18.1812V20.091C28.4299 19.8818 28.4306 19.3616 28.4306 19.1361C28.4306 18.9105 28.4299 18.3903 27.6226 18.1812Z" fill="#0073BE"/>
<path d="M26.7898 10C22.7868 10 19.5301 13.2567 19.5301 17.2598C19.5301 21.2628 22.7868 24.5196 26.7898 24.5196C30.7929 24.5196 34.0496 21.2628 34.0496 17.2598C34.0496 13.2567 30.793 10 26.7898 10ZM29.0006 16.9936C29.717 17.4714 30.0955 18.2126 30.0955 19.137C30.0955 20.0614 29.7169 20.8026 29.0006 21.2804C28.6211 21.5336 28.1594 21.7023 27.6224 21.7857V22.6045H25.9572V21.7857C25.4203 21.7023 24.9585 21.5336 24.579 21.2804C23.8627 20.8026 23.4841 20.0614 23.4841 19.137H25.1493C25.1493 19.3625 25.15 19.8827 25.9573 20.0919V18.0313C25.4203 17.9479 24.9586 17.7792 24.5791 17.526C23.8628 17.0482 23.4842 16.307 23.4842 15.3826C23.4842 14.4582 23.8628 13.717 24.5791 13.2392C24.9586 12.986 25.4203 12.8173 25.9573 12.7339V11.915H27.6225V12.7339C28.1594 12.8173 28.6212 12.986 29.0007 13.2392C29.717 13.717 30.0956 14.4582 30.0956 15.3826H28.4304C28.4304 15.1571 28.4297 14.6369 27.6224 14.4277V16.4883C28.1594 16.5718 28.6212 16.7404 29.0006 16.9936Z" fill="#0073BE"/>
<path d="M10 26.7354V38.0308H14.1063V36.3656V35.8849V28.4005V26.8579V26.7354H10Z" fill="#0073BE"/>
<path d="M37.3822 29.3911L30.4535 31.2953L24.5506 29.8557L24.9452 28.238L30.4286 29.5753L30.4411 29.5718V27.4333L22.7752 25.5137L15.7715 26.6002V26.736V28.2853V34.0232V35.6988L19.8189 35.2448L27.6611 37.4462L38 31.748L37.3822 29.3911Z" fill="#0073BE"/>
</svg>
