<svg width="48" height="48" viewBox="0 0 48 48" fill="none" xmlns="http://www.w3.org/2000/svg">
<circle cx="24" cy="24" r="24" fill="white"/>
<path d="M35.7832 19.5709L24.2088 13.0547C24.0792 12.9818 23.9209 12.9818 23.7912 13.0547L12.2168 19.5709C12.0829 19.6463 12 19.7881 12 19.9418V34.7783C12 34.8491 12.0574 34.9064 12.1281 34.9064H14.682C14.7527 34.9064 14.8101 34.8491 14.8101 34.7783V22.1869H33.1899V34.7784C33.1899 34.8491 33.2472 34.9065 33.318 34.9065H35.8719C35.9426 34.9065 36 34.8491 36 34.7784V19.9417C36 19.7881 35.9172 19.6463 35.7832 19.5709Z" fill="#0073BE"/>
<path d="M31.1977 30.9304H28.0727C27.8376 30.9304 27.6471 31.1209 27.6471 31.356V34.481C27.6471 34.7161 27.8377 34.9066 28.0727 34.9066H31.1977C31.4327 34.9066 31.6232 34.7161 31.6232 34.481V31.356C31.6232 31.1209 31.4327 30.9304 31.1977 30.9304Z" fill="#0073BE"/>
<path d="M25.5625 30.9304H22.4375C22.2024 30.9304 22.0119 31.1209 22.0119 31.356V34.481C22.0119 34.7161 22.2024 34.9066 22.4375 34.9066H25.5625C25.7975 34.9066 25.988 34.7161 25.988 34.481V31.356C25.988 31.1209 25.7975 30.9304 25.5625 30.9304Z" fill="#0073BE"/>
<path d="M19.9273 30.9304H16.8023C16.5673 30.9304 16.3768 31.1209 16.3768 31.356V34.481C16.3768 34.7161 16.5673 34.9066 16.8023 34.9066H19.9273C20.1623 34.9066 20.3528 34.7161 20.3528 34.481V31.356C20.3528 31.1209 20.1623 30.9304 19.9273 30.9304Z" fill="#0073BE"/>
<path d="M31.1977 25.1809H28.0727C27.8376 25.1809 27.6471 25.3714 27.6471 25.6064V28.7315C27.6471 28.9665 27.8377 29.1571 28.0727 29.1571H31.1977C31.4327 29.1571 31.6232 28.9665 31.6232 28.7315V25.6064C31.6232 25.3714 31.4327 25.1809 31.1977 25.1809Z" fill="#0073BE"/>
<path d="M25.5625 25.1809H22.4375C22.2024 25.1809 22.0119 25.3714 22.0119 25.6064V28.7315C22.0119 28.9665 22.2024 29.1571 22.4375 29.1571H25.5625C25.7975 29.1571 25.988 28.9665 25.988 28.7315V25.6064C25.988 25.3714 25.7975 25.1809 25.5625 25.1809Z" fill="#0073BE"/>
<path d="M19.9273 25.1809H16.8023C16.5673 25.1809 16.3768 25.3714 16.3768 25.6064V28.7315C16.3768 28.9665 16.5673 29.1571 16.8023 29.1571H19.9273C20.1623 29.1571 20.3528 28.9665 20.3528 28.7315V25.6064C20.3528 25.3714 20.1623 25.1809 19.9273 25.1809Z" fill="#0073BE"/>
</svg>
