<svg width="24" height="24" viewBox="0 0 24 24" fill="none" xmlns="http://www.w3.org/2000/svg">
<path d="M10.9746 6.25431C11.5605 6.90384 11.3747 7.63969 10.8566 8.3379C10.7338 8.50344 10.5922 8.66654 10.4212 8.84627C10.3391 8.93254 10.2751 8.99742 10.1412 9.13142C9.8372 9.43576 9.58161 9.69149 9.37447 9.89862C9.27402 9.99906 9.95984 11.3695 11.2908 12.7018C12.6211 14.0334 13.9915 14.7197 14.0924 14.6187L14.8587 13.8521C15.2806 13.4297 15.5041 13.2259 15.8112 13.0244C16.4495 12.6056 17.1458 12.4918 17.7331 13.0169C19.6504 14.3885 20.7355 15.2301 21.267 15.7824C22.3038 16.8597 22.168 18.518 21.2729 19.464C20.9626 19.792 20.569 20.1858 20.1042 20.6338C17.2927 23.4469 11.359 21.735 6.81151 17.183C2.26297 12.63 0.551938 6.69577 3.35759 3.88861C3.86128 3.377 4.02736 3.21101 4.51791 2.72765C5.43124 1.82771 7.16601 1.6868 8.22057 2.72854C8.77527 3.27649 9.65961 4.41433 10.9746 6.25431ZM16.2723 15.2661L15.5059 16.0329C14.2031 17.3364 11.9846 16.2253 9.87709 14.1157C7.76814 12.0047 6.65833 9.787 7.96148 8.48396C8.16835 8.27711 8.42369 8.02162 8.7275 7.71751C8.85008 7.59481 8.90615 7.53798 8.97345 7.46724C9.06515 7.37087 9.1405 7.28623 9.20083 7.21133C8.03546 5.58799 7.24326 4.57364 6.8162 4.15176C6.59564 3.93389 6.10178 3.97401 5.92048 4.15265C5.43692 4.62912 5.27798 4.78798 4.77632 5.29748C2.97201 7.10279 4.35327 11.8933 8.22525 15.7691C12.096 19.6437 16.8858 21.0256 18.7039 19.2068C19.1614 18.7655 19.5343 18.3924 19.8213 18.089C20.0287 17.8699 20.0657 17.4176 19.8272 17.1697C19.4298 16.7568 18.4571 15.9984 16.7774 14.7922C16.655 14.8907 16.5045 15.0337 16.2723 15.2661ZM13.6551 2.06944C17.9785 2.59348 21.4065 6.02153 21.9305 10.3448L19.9551 10.6741C19.5737 7.19172 16.8083 4.4263 13.3259 4.04488L13.6551 2.06944ZM12.9964 6.02202C15.6379 6.25828 17.7417 8.36209 17.978 11.0036L15.9962 11.3339C15.9121 9.53302 14.467 8.08789 12.6661 8.0038L12.9964 6.02202Z" fill="#0073BE"/>
</svg>
