<svg width="48" height="48" viewBox="0 0 48 48" fill="none" xmlns="http://www.w3.org/2000/svg">
<circle cx="24" cy="24" r="24" fill="white"/>
<path d="M32.5668 17.5269H31.9965V21.9601C31.9965 25.2446 29.3243 27.9168 26.0398 27.9168H17.527V28.4873C17.527 30.9317 19.5158 32.9203 21.9602 32.9203H31.0671L35.7507 36.8233C35.8902 36.9396 36.0635 36.9999 36.2385 36.9999C36.6572 36.9999 37 36.6601 37 36.2382V21.9601C37 19.5119 35.0193 17.5269 32.5668 17.5269Z" fill="#0073BE"/>
<path d="M30.473 21.9602V15.4332C30.473 12.9807 28.4882 11 26.0398 11H15.4332C12.9807 11 11 12.9848 11 15.4332V29.7113C11 30.133 11.3428 30.473 11.7615 30.473C11.9365 30.473 12.1098 30.4127 12.2493 30.2963L16.9329 26.3935H26.0398C28.4842 26.3935 30.473 24.4049 30.473 21.9602ZM20.7365 23.13C20.316 23.13 19.9748 22.7888 19.9748 22.3683C19.9748 21.9477 20.316 21.6065 20.7365 21.6065C21.1568 21.6065 21.4982 21.9477 21.4982 22.3683C21.4982 22.7888 21.1568 23.13 20.7365 23.13ZM21.4982 19.7612V19.9206C21.4982 20.3412 21.157 20.6824 20.7365 20.6824C20.3158 20.6824 19.9748 20.3412 19.9748 19.9206V19.1048C19.9748 18.684 20.3158 18.343 20.7365 18.343C21.4411 18.343 22.0144 17.7696 22.0144 17.065C22.0144 16.3602 21.4411 15.7869 20.7365 15.7869C20.3945 15.7869 20.0738 15.9198 19.8326 16.161C19.5914 16.4023 19.4585 16.723 19.4585 17.064C19.4585 17.4847 19.1175 17.8263 18.6967 17.8263C18.276 17.8263 17.935 17.4855 17.935 17.065V17.064C17.935 16.3162 18.2264 15.6128 18.7552 15.0839C19.2843 14.5549 19.9875 14.2635 20.7355 14.2635C22.2812 14.2635 23.5378 15.5203 23.5378 17.065C23.5378 18.3458 22.6739 19.4287 21.4982 19.7612Z" fill="#0073BE"/>
</svg>
