<svg width="48" height="48" viewBox="0 0 48 48" fill="none" xmlns="http://www.w3.org/2000/svg">
<circle cx="24" cy="24" r="24" fill="white"/>
<path d="M22.7029 35.2573C23.8044 35.2573 24.6974 34.3644 24.6974 33.2628C24.6974 32.1613 23.8044 31.2683 22.7029 31.2683C21.6013 31.2683 20.7083 32.1613 20.7083 33.2628C20.7083 34.3644 21.6013 35.2573 22.7029 35.2573Z" fill="#0073BE"/>
<path d="M13.3131 35.2573C14.4146 35.2573 15.3076 34.3644 15.3076 33.2628C15.3076 32.1613 14.4146 31.2683 13.3131 31.2683C12.2115 31.2683 11.3186 32.1613 11.3186 33.2628C11.3186 34.3644 12.2115 35.2573 13.3131 35.2573Z" fill="#0073BE"/>
<path d="M39.131 33.3973H31.0783C30.5984 33.3973 30.2093 33.0083 30.2093 32.5283V13.869C30.2093 13.389 30.5984 13 31.0783 13C31.5582 13 31.9473 13.389 31.9473 13.869V31.6594H39.131C39.611 31.6594 40 32.0484 40 32.5283C39.9999 33.0083 39.6109 33.3973 39.131 33.3973Z" fill="#0073BE"/>
<path d="M27.8021 25.9132C26.0044 22.9752 21.2772 15.1022 21.2298 15.0235C20.9892 14.6206 20.5481 14.3704 20.0789 14.3704H12.4219C11.6825 14.3704 11.0811 14.9718 11.0811 15.7112V23.0894H8.92643C8.41554 23.0894 8 23.505 8 24.0157V32.5639C8 33.0746 8.41554 33.4902 8.92643 33.4902H9.89681C10.0225 33.4902 10.1242 33.3883 10.1242 33.2627C10.1242 31.5044 11.5547 30.0738 13.3131 30.0738C15.0715 30.0738 16.502 31.5044 16.502 33.2627C16.502 33.3231 16.526 33.3809 16.5686 33.4236C16.6113 33.4663 16.6691 33.4902 16.7295 33.4902H19.2866C19.4122 33.4902 19.514 33.3883 19.514 33.2627C19.514 31.5044 20.9444 30.0738 22.7028 30.0738C24.4612 30.0738 25.8917 31.5044 25.8917 33.2627C25.8917 33.3884 25.9936 33.4902 26.1191 33.4902H26.8133C27.4764 33.4902 28.016 32.9507 28.016 32.2876V26.5186C28.016 26.2827 27.9056 26.0825 27.8021 25.9132ZM20.1941 25.8986V24.6525C20.1941 24.4384 20.0205 24.2647 19.8063 24.2647H17.6091V20.5952C17.6091 20.3811 17.4355 20.2074 17.2213 20.2074H15.9934C15.7793 20.2074 15.6056 20.381 15.6056 20.5952V25.8987H13.7628L13.7626 17.052H19.3181L24.6043 25.8987H20.1941V25.8986Z" fill="#0073BE"/>
<path d="M39.9999 29.8823C39.9999 30.1108 39.8148 30.2959 39.5864 30.2959H33.6616C33.4332 30.2959 33.248 30.1108 33.248 29.8823V23.9575C33.248 23.7291 33.4332 23.5439 33.6616 23.5439H39.5864C39.8148 23.5439 39.9999 23.7291 39.9999 23.9575V29.8823Z" fill="#0073BE"/>
<path d="M39.9999 21.4367C39.9999 21.6652 39.8148 21.8504 39.5864 21.8504H33.6616C33.4332 21.8504 33.248 21.6652 33.248 21.4367V15.512C33.248 15.2835 33.4332 15.0984 33.6616 15.0984H39.5864C39.8148 15.0984 39.9999 15.2835 39.9999 15.512V21.4367Z" fill="#0073BE"/>
</svg>
