<svg width="49" height="48" viewBox="0 0 49 48" fill="none" xmlns="http://www.w3.org/2000/svg">
<circle cx="24.0616" cy="24" r="24" fill="white"/>
<path d="M12.4673 26.261L30.1208 36.4533L28.3387 39.54L10.6851 29.3478L12.4673 26.261Z" fill="#0073BE"/>
<path d="M29.2274 23.4338C29.8623 22.334 30.8149 21.4853 31.9097 21.0442C32.9945 20.6067 33.8778 19.8392 34.4638 18.8241C35.1525 17.6313 35.3394 16.241 34.9902 14.909C34.6412 13.5779 33.7977 12.4587 32.6147 11.7575C31.4318 11.057 30.0423 10.8558 28.7049 11.1897C27.3852 11.5191 26.2655 12.3335 25.552 13.4827C24.9084 14.5194 24.6485 15.7531 24.8201 16.9566C24.9962 18.1915 24.7588 19.451 24.1513 20.5031L23.5614 21.5249L28.6374 24.4556L29.2274 23.4338Z" fill="#0073BE"/>
<path d="M33.6697 33.9221C34.813 31.9418 34.1321 29.4006 32.1518 28.2573L27.8699 25.7851L27.87 25.785L22.7939 22.8543L22.7938 22.8545L18.5499 20.4042C16.5696 19.2609 14.0284 19.9418 12.885 21.9221L11.6692 24.0281L32.4538 36.0281L33.6697 33.9221Z" fill="#0073BE"/>
</svg>
