<svg width="48" height="48" viewBox="0 0 48 48" fill="none" xmlns="http://www.w3.org/2000/svg">
<circle cx="24" cy="24" r="24" fill="white"/>
<path d="M24.822 10C23.0121 10 21.4857 11.5264 21.4857 13.3362C21.4857 15.1461 23.0121 16.6725 24.822 16.6725C26.6318 16.6725 28.1035 15.1461 28.1035 13.3362C28.1035 11.5264 26.6318 10 24.822 10Z" fill="#0073BE"/>
<path d="M28.4641 16.6724C27.5625 17.6721 26.2711 18.3131 24.822 18.3131C23.3729 18.3131 22.0268 17.6721 21.1252 16.6724C20.3381 17.5452 19.845 18.6887 19.845 19.9539V20.7743C19.845 21.2278 20.2119 21.5947 20.6654 21.5947H28.9239C29.3774 21.5947 29.7443 21.2278 29.7443 20.7743V19.9539C29.7443 18.6887 29.2512 17.5452 28.4641 16.6724Z" fill="#0073BE"/>
<path d="M17.9261 35.1804L13.7454 26.7985C13.3417 25.9891 12.3592 25.659 11.5488 26.0605L10.4561 26.6018C10.0493 26.8036 9.8837 27.2981 10.0868 27.7042L15.0091 37.5489C15.2115 37.9548 15.7039 38.1164 16.1075 37.9174L17.1861 37.383C17.9997 36.98 18.3313 35.9929 17.9261 35.1804Z" fill="#0073BE"/>
<path d="M37.3302 23.5473C36.6574 23.0551 35.7222 23.1535 35.1644 23.7606L30.6796 29.2736C30.3678 29.6018 29.7771 29.7987 29.4654 29.7987H25.6423C25.1829 29.7987 24.8219 29.4378 24.8219 28.9783C24.8219 28.5188 25.1829 28.1579 25.6423 28.1579C26.7411 28.1579 27.9576 28.1579 28.9239 28.1579C29.8263 28.1579 30.5647 27.4196 30.5647 26.5171C30.5647 25.6147 29.8263 24.8764 28.9239 24.8764C25.071 24.8764 28.7461 24.8764 24.625 24.8764C24.2162 24.8764 24.0123 24.6171 23.6898 24.3348C22.4204 23.1926 20.5204 22.6423 18.5969 23.0881C17.5289 23.3357 16.8086 23.7671 16.0781 24.3457L16.0538 24.3259L14.8672 25.3702L19.5305 34.721H20.9114H28.9239C30.4662 34.721 31.943 33.9827 32.8618 32.7521L37.6747 25.8608C38.2161 25.1388 38.0685 24.0888 37.3302 23.5473Z" fill="#0073BE"/>
</svg>
