<svg width="48" height="48" viewBox="0 0 48 48" fill="none" xmlns="http://www.w3.org/2000/svg">
<circle cx="24" cy="24" r="24" fill="white"/>
<path d="M15.3003 21.0304L21.2729 27.1596V35.4908H21.2262V35.5215H16.3287V31.9228L11.3292 25.3212C11.1304 25.0724 11 24.771 11 24.4376V14.2915C11 13.4975 11.645 12.8512 12.4422 12.8512C13.2343 12.8512 13.8809 13.4978 13.8809 14.2915V20.1517C13.5321 20.2279 13.2013 20.3733 12.9345 20.6332C12.1713 21.3805 12.1523 22.608 12.8983 23.3735L15.6242 26.1776L15.9949 25.8138L13.2654 23.0163C12.7195 22.4533 12.7312 21.5498 13.2892 21.0003C13.4661 20.8362 13.6727 20.7185 13.8943 20.6558C14.1323 20.5881 14.3768 20.5848 14.6118 20.6329C14.8773 20.6992 15.1149 20.8365 15.3003 21.0304ZM32.7004 21.0304L26.7219 27.1609V35.494H26.7693V35.5212H31.6713V31.9244L36.6682 25.3212C36.8696 25.0724 37 24.771 37 24.4379V14.2915C37 13.4975 36.355 12.8512 35.5578 12.8512C34.7657 12.8512 34.1191 13.4978 34.1191 14.2915V20.1517C34.4695 20.2279 34.7997 20.3733 35.0655 20.6332C35.8307 21.3805 35.849 22.608 35.1044 23.3735L32.3758 26.1776L32.0031 25.8138L34.7353 23.0163C35.2786 22.4517 35.2685 21.5498 34.7062 20.9987C34.5336 20.8346 34.3221 20.7159 34.1018 20.6541C33.8684 20.5865 33.6209 20.5829 33.3859 20.6313C33.1237 20.6992 32.8864 20.8365 32.7004 21.0304ZM23.9982 23.3127C25.5604 23.3127 26.886 22.7498 27.9981 21.6489C29.1052 20.5436 29.6567 19.2174 29.6567 17.6484C29.6567 16.0901 29.1049 14.7521 27.9981 13.6485C26.886 12.5407 25.5604 12 23.9982 12C22.4386 12 21.0987 12.5407 20.0046 13.6485C18.8899 14.7521 18.344 16.0904 18.344 17.6484C18.344 19.2174 18.8882 20.541 20.0046 21.6489C21.0987 22.7498 22.4383 23.3127 23.9982 23.3127Z" fill="#0073BE"/>
</svg>
