<svg width="48" height="48" viewBox="0 0 48 48" fill="none" xmlns="http://www.w3.org/2000/svg">
<circle cx="24" cy="24" r="24" fill="white"/>
<path d="M35.9194 32.6686L32.9734 26.3511C31.3468 28.7196 28.8069 30.4062 25.8669 30.9176L28.333 36.206C28.6483 36.8827 29.6241 36.8375 29.878 36.1387L31.1421 32.6665L31.4026 32.545L34.8748 33.8091C35.5716 34.0647 36.2343 33.3426 35.9194 32.6686Z" fill="#0073BE"/>
<path d="M24 11C18.9232 11 14.7924 15.1306 14.7924 20.2077C14.7924 25.2848 18.9232 29.4154 24 29.4154C29.0769 29.4154 33.2077 25.2848 33.2077 20.2077C33.2077 15.1306 29.077 11 24 11ZM28.4803 19.5311L26.8476 21.1228L27.2334 23.3707C27.3514 24.0571 26.6282 24.5727 26.0186 24.253L24.0001 23.192L21.9816 24.253C21.3685 24.5749 20.6495 24.0532 20.7668 23.3707L21.1526 21.1227L19.5199 19.5311C19.0237 19.0473 19.2991 18.2028 19.9838 18.1034L22.2405 17.7756L23.2497 15.7308C23.5552 15.1099 24.4448 15.1093 24.7506 15.7308L25.7599 17.7756L28.0166 18.1034C28.7011 18.2028 28.9765 19.0473 28.4803 19.5311Z" fill="#0073BE"/>
<path d="M15.0267 26.3511L12.0807 32.6686C11.7644 33.3458 12.4331 34.0639 13.1254 33.8089L16.5976 32.5449L16.8581 32.6663L18.1222 36.1386C18.3756 36.836 19.3512 36.8841 19.6672 36.206L22.1333 30.9176C19.1933 30.4062 16.6535 28.7197 15.0267 26.3511Z" fill="#0073BE"/>
</svg>
