<svg width="48" height="48" viewBox="0 0 48 48" fill="none" xmlns="http://www.w3.org/2000/svg">
<circle cx="24" cy="24" r="24" fill="white"/>
<path d="M16.131 28.7912L16.1143 21.1719C16.1135 20.8248 16.4681 20.5901 16.7872 20.7266L23.2092 23.4718C23.3867 23.5477 23.5019 23.7219 23.5024 23.9149L23.5191 31.5342C23.5199 31.8813 23.1653 32.1161 22.8461 31.9795L16.4241 29.2343C16.2467 29.1584 16.1314 28.9842 16.131 28.7912ZM31.5007 20.6529C31.7555 20.6523 31.984 20.8572 31.9847 21.1354L32.0014 28.7548C32.0019 28.9477 31.8874 29.1225 31.7103 29.1992L25.3014 31.9749C25.2382 32.0023 25.1734 32.0151 25.1103 32.0152C24.8555 32.0158 24.6269 31.8109 24.6263 31.5328L24.6096 23.9135C24.6092 23.7205 24.7236 23.5458 24.9007 23.469L31.3096 20.6934C31.3728 20.6659 31.4375 20.6531 31.5007 20.6529ZM23.9545 15.6258C24.0212 15.6256 24.0881 15.6392 24.1505 15.6668L30.9072 18.6454C31.2905 18.8144 31.2918 19.3578 30.9092 19.5286L24.1667 22.5391C24.1044 22.5669 24.0376 22.5809 23.9709 22.5811C23.9041 22.5812 23.8373 22.5676 23.7749 22.54L17.0182 19.5614C16.6349 19.3924 16.6336 18.849 17.0161 18.6782L23.7587 15.6677C23.821 15.6399 23.8877 15.6259 23.9545 15.6258ZM25.5057 37.6209V33.9703H22.5008V37.6209H19.6222L24.0028 42L28.384 37.6209H25.5057ZM37.6209 22.4943H33.9703V25.4992H37.6209V28.3778L42 23.9972L37.6209 19.6159V22.4943ZM22.4943 10.3791V14.0297H25.4992V10.3791H28.3778L23.9972 6L19.6159 10.3791H22.4943ZM10.3791 25.5057H14.0297V22.5008H10.3791V19.6222L6 24.0028L10.3791 28.384V25.5057Z" fill="#0073BE"/>
</svg>
