<svg width="48" height="48" viewBox="0 0 48 48" fill="none" xmlns="http://www.w3.org/2000/svg">
<circle cx="24" cy="24" r="24" fill="white"/>
<path d="M28.7358 26.6858C27.6793 26.6858 26.6952 26.1163 26.1674 25.1996C25.7831 24.532 25.6766 23.746 25.8673 22.9862L26.507 20.4388C26.718 19.5984 27.1534 18.8304 27.766 18.2178L31.9443 14.0394C31.843 13.4493 31.3301 13 30.7112 13H14.2526C13.5608 13 13 13.5608 13 14.2526V35.1201C13 35.8119 13.5608 36.3727 14.2526 36.3727H30.7113C31.403 36.3727 31.9639 35.8119 31.9639 35.1201V25.9672L29.4572 26.5966C29.2214 26.6559 28.9788 26.6858 28.7358 26.6858ZM24.5068 28.7039L20.7825 31.6767C20.5528 31.8599 20.2766 31.9503 20.0014 31.9503C19.6792 31.9503 19.3585 31.8265 19.1154 31.5833L17.462 29.9299C16.9728 29.4407 16.9728 28.6477 17.462 28.1585C17.9511 27.6694 18.7443 27.6692 19.2334 28.1585L20.0949 29.0199L22.9439 26.7459C23.4848 26.3144 24.2727 26.4029 24.7043 26.9435C25.1359 27.4842 25.0475 28.2724 24.5068 28.7039ZM24.5068 20.6096L20.7825 23.5822C20.5528 23.7654 20.2766 23.8558 20.0014 23.8558C19.6793 23.8558 19.3585 23.732 19.1154 23.4889L17.462 21.8355C16.9728 21.3464 16.9728 20.5533 17.462 20.0641C17.9511 19.575 18.7443 19.575 19.2334 20.0641L20.0949 20.9255L22.9439 18.6515C23.4848 18.2198 24.2728 18.3085 24.7043 18.8491C25.1359 19.3899 25.0475 20.178 24.5068 20.6096Z" fill="#0073BE"/>
<path d="M36.1144 13.7683C35.8983 13.7683 35.6782 13.8485 35.499 14.0276L29.5375 19.9891C29.245 20.2815 29.0375 20.6477 28.9367 21.0488L28.2971 23.5962C28.2673 23.7151 28.2775 23.8434 28.3386 23.9496C28.4238 24.0978 28.5772 24.1805 28.7357 24.1805C28.7727 24.1805 28.8101 24.176 28.8469 24.1667L31.4109 23.5229C31.812 23.4222 32.1782 23.2146 32.4706 22.9222L36.1025 19.2902C36.6771 18.7156 37 17.9362 37 17.1235V14.6492C37 14.1194 36.5664 13.7683 36.1144 13.7683Z" fill="#0073BE"/>
</svg>
