<svg width="24" height="24" viewBox="0 0 24 24" fill="none" xmlns="http://www.w3.org/2000/svg">
<path d="M12.6577 22.7533L12 23.3276L11.3423 22.7533C5.81131 17.9237 3 13.7068 3 10C3 4.75066 7.09705 1 12 1C16.9029 1 21 4.75066 21 10C21 13.7068 18.1887 17.9237 12.6577 22.7533ZM5 10C5 12.8492 7.30661 16.4335 12 20.6634C16.6934 16.4335 19 12.8492 19 10C19 5.8966 15.8359 3 12 3C8.16411 3 5 5.8966 5 10ZM12 5C14.7614 5 17 7.23858 17 10C17 12.7614 14.7614 15 12 15C9.23858 15 7 12.7614 7 10C7 7.23858 9.23858 5 12 5ZM12 7C10.3431 7 9 8.34315 9 10C9 11.6569 10.3431 13 12 13C13.6569 13 15 11.6569 15 10C15 8.34315 13.6569 7 12 7Z" fill="#0073BE"/>
</svg>
