<svg width="48" height="48" viewBox="0 0 48 48" fill="none" xmlns="http://www.w3.org/2000/svg">
<circle cx="24" cy="24" r="24" fill="white"/>
<path d="M24 14.1016C22.6431 14.1016 21.5391 15.2056 21.5391 16.5625C21.5391 17.9194 22.6431 19.0234 24 19.0234C25.3569 19.0234 26.4609 17.9194 26.4609 16.5625C26.4609 15.2056 25.3569 14.1016 24 14.1016Z" fill="#0073BE"/>
<path d="M24 10C20.3814 10 17.4375 12.9439 17.4375 16.5625C17.4375 17.8034 17.7859 19.0123 18.4454 20.0584L24 28.9219L29.5546 20.0584C30.2141 19.0123 30.5625 17.8034 30.5625 16.5625C30.5625 12.9439 27.6186 10 24 10ZM24 20.6641C21.7386 20.6641 19.8984 18.8239 19.8984 16.5625C19.8984 14.3011 21.7386 12.4609 24 12.4609C26.2614 12.4609 28.1016 14.3011 28.1016 16.5625C28.1016 18.8239 26.2614 20.6641 24 20.6641Z" fill="#0073BE"/>
<path d="M20.0076 38H27.9896L27.3588 33.0234H20.6226L20.0076 38Z" fill="#0073BE"/>
<path d="M20.8277 31.382H23.6121L21.2885 27.6968L20.8277 31.382Z" fill="#0073BE"/>
<path d="M28.8031 31.3828H35.2658L33.215 26.4609H28.1718L28.8031 31.3828Z" fill="#0073BE"/>
<path d="M12.7342 31.3828H19.1745L19.7897 26.4609H14.785L12.7342 31.3828Z" fill="#0073BE"/>
<path d="M24.3879 31.3831H27.1484L26.682 27.7451L24.3879 31.3831Z" fill="#0073BE"/>
<path d="M18.9694 33.0234H12.0506L10 38H18.3544L18.9694 33.0234Z" fill="#0073BE"/>
<path d="M35.9495 33.0234H29.0134L29.6444 38H38.0001L35.9495 33.0234Z" fill="#0073BE"/>
</svg>
