<svg width="48" height="48" viewBox="0 0 48 48" fill="none" xmlns="http://www.w3.org/2000/svg">
<circle cx="24" cy="24" r="24" fill="white"/>
<path d="M36.6 17.8667V30.9333H38V32.8H10V30.9334H11.4V17.8667H10V16H38V17.8667H36.6ZM16.5334 18.3333H15.6C15.3423 18.3333 15.1334 18.5423 15.1334 18.8001V30.0001C15.1334 30.2578 15.3423 30.4668 15.6 30.4668H16.5334C16.7911 30.4668 17 30.2578 17 30.0001V18.8C17 18.5423 16.7911 18.3333 16.5334 18.3333ZM24.4667 18.3333H23.5333C23.2756 18.3333 23.0667 18.5423 23.0667 18.8001V30.0001C23.0667 30.2578 23.2756 30.4668 23.5333 30.4668H24.4667C24.7244 30.4668 24.9334 30.2578 24.9334 30.0001V18.8C24.9334 18.5423 24.7244 18.3333 24.4667 18.3333ZM32.8667 18.3333H31.9334C31.6756 18.3333 31.4666 18.5423 31.4666 18.8001V30.0001C31.4666 30.2578 31.6756 30.4668 31.9334 30.4668H32.8667C33.1244 30.4668 33.3334 30.2578 33.3334 30.0001V18.8C33.3334 18.5423 33.1244 18.3333 32.8667 18.3333Z" fill="#0073BE"/>
</svg>
