<svg width="48" height="48" viewBox="0 0 48 48" fill="none" xmlns="http://www.w3.org/2000/svg">
<circle cx="24" cy="24" r="24" fill="white"/>
<path d="M25.3143 31.6954C25.3143 28.4107 27.977 25.7482 31.2614 25.7482C31.9528 25.7482 32.4001 25.8308 32.869 25.9693C33.1848 26.1032 33.3056 25.8395 33.3385 25.7165C33.5534 24.9139 33.6739 24.0955 33.6739 23.2709C33.6739 23.2157 33.643 16.1962 33.643 16.1095C33.643 15.4173 33.2464 15.4189 33.0693 15.4198C31.7986 15.4258 30.5034 15.4264 29.1409 15.0336C26.3102 14.2175 23.7936 12 22.8369 12C21.9102 12 20.0417 14.2176 17.2109 15.0336C15.6146 15.4938 14.0839 15.4084 12.6518 15.342C12.4835 15.3343 12.2157 15.2897 12.1307 15.8729C12.1092 16.0199 12 23.192 12 23.2709C12 30.2774 20.6682 36.8585 22.8368 36.8585C23.5307 36.8585 24.6487 36.3012 26.1534 35.1814C26.3539 35.0082 26.2465 34.8934 26.1872 34.7966C25.634 33.8937 25.3143 32.8321 25.3143 31.6954Z" fill="#0073BE"/>
<path d="M31.2988 34.7279C31.0984 34.9438 30.7409 34.9772 30.5041 34.8021L26.7379 32.0171C26.5012 31.8421 26.4523 31.5064 26.6294 31.2711L27.1127 30.6296C27.2898 30.3944 27.6289 30.3445 27.8664 30.5187L30.2815 32.291C30.5188 32.4651 30.8769 32.431 31.0772 32.215L34.4858 28.6471C34.6861 28.4311 35.0263 28.4186 35.2419 28.6192L35.8298 29.1664C36.0453 29.367 36.0579 29.7078 35.8576 29.9237L31.2988 34.7279Z" fill="#0073BE"/>
</svg>
