<svg width="48" height="48" viewBox="0 0 48 48" fill="none" xmlns="http://www.w3.org/2000/svg">
<circle cx="24" cy="24" r="24" fill="white"/>
<path d="M17.4796 28.0271C15.923 28.0271 14.6605 29.2896 14.6605 30.8416C14.6605 32.3982 15.923 33.6607 17.4796 33.6607C19.0317 33.6607 20.2941 32.3981 20.2941 30.8416C20.2941 29.2896 19.0317 28.0271 17.4796 28.0271ZM17.4796 32.2534C16.7013 32.2534 16.0679 31.6199 16.0679 30.8416C16.0679 30.0679 16.7013 29.4344 17.4796 29.4344C18.2533 29.4344 18.8868 30.0678 18.8868 30.8416C18.8868 31.6199 18.2534 32.2534 17.4796 32.2534ZM15.053 28.0283H8.74395C8.49407 28.0283 8.2915 28.2309 8.2915 28.4808V29.8536C8.2915 30.1035 8.49407 30.3061 8.74395 30.3061H13.8009C13.933 29.4002 14.3902 28.5999 15.053 28.0283ZM32.2082 28.0271C30.6561 28.0271 29.3937 29.2896 29.3937 30.8416C29.3937 32.3982 30.6561 33.6607 32.2082 33.6607C33.7647 33.6607 35.0226 32.3981 35.0226 30.8416C35.0226 29.2896 33.7647 28.0271 32.2082 28.0271ZM32.2082 32.2534C31.4299 32.2534 30.8009 31.6199 30.8009 30.8416C30.8009 30.0679 31.4299 29.4344 32.2082 29.4344C32.9864 29.4344 33.6154 30.0678 33.6154 30.8416C33.6154 31.6199 32.9864 32.2534 32.2082 32.2534ZM39.5476 28.0271H38.448V21.8778C38.448 21.1584 38.2308 20.4525 37.8281 19.8552L35.0725 15.7738C34.4027 14.7782 33.2761 14.181 32.0725 14.181H27.801C27.3032 14.181 26.896 14.5837 26.896 15.086V28.0271H19.905C20.5656 28.6018 21.0226 29.3982 21.1539 30.3077H28.534C28.7919 28.5113 30.3394 27.1221 32.2082 27.1221C34.0769 27.1221 35.6245 28.5113 35.8869 30.3077H39.5476C39.801 30.3077 40 30.104 40 29.8552V28.4796C40 28.2307 39.8009 28.0271 39.5476 28.0271ZM35.0407 20.6696H29.4027C29.1538 20.6696 28.9502 20.4705 28.9502 20.2172V17.0905C28.9502 16.8416 29.1539 16.638 29.4027 16.638H32.8371C32.9864 16.638 33.1267 16.7104 33.2082 16.828L35.4119 19.9592C35.6244 20.2579 35.4072 20.6696 35.0407 20.6696ZM24.7421 27.1221H8.90494C8.40518 27.1221 8 26.717 8 26.2172V22.1448C8 21.645 8.40518 21.2398 8.90494 21.2398H24.7421C25.2419 21.2398 25.6471 21.645 25.6471 22.1448V26.2172C25.6471 26.717 25.2419 27.1221 24.7421 27.1221ZM15.2398 19.8824H8.90494C8.40518 19.8824 8 19.4771 8 18.9774V14.905C8 14.4052 8.40518 14 8.90494 14H15.2398C15.7396 14 16.1448 14.4052 16.1448 14.905V18.9774C16.1448 19.4771 15.7397 19.8824 15.2398 19.8824ZM24.7421 19.8824H18.4073C17.9075 19.8824 17.5023 19.4772 17.5023 18.9774V14.905C17.5023 14.4052 17.9075 14.0001 18.4073 14.0001H24.7421C25.2419 14.0001 25.6471 14.4052 25.6471 14.905V18.9774C25.6471 19.4771 25.2419 19.8824 24.7421 19.8824Z" fill="#0073BE"/>
</svg>
