<svg width="48" height="48" viewBox="0 0 48 48" fill="none" xmlns="http://www.w3.org/2000/svg">
<circle cx="24" cy="24" r="24" fill="white"/>
<path d="M24 12C17.4 12 12 17.4 12 24C12 30.6 17.4 36 24 36C30.6 36 36 30.6 36 24C36 17.4 30.6 12 24 12ZM32.28 19.2H28.8C28.44 17.64 27.84 16.32 27.12 14.88C29.28 15.72 31.2 17.16 32.28 19.2ZM24 14.4C24.96 15.84 25.8 17.4 26.28 19.2H21.72C22.2 17.52 23.04 15.84 24 14.4ZM14.76 26.4C14.52 25.68 14.4 24.84 14.4 24C14.4 23.16 14.52 22.32 14.76 21.6H18.84C18.72 22.44 18.72 23.16 18.72 24C18.72 24.84 18.84 25.56 18.84 26.4H14.76ZM15.72 28.8H19.2C19.56 30.36 20.16 31.68 20.88 33.12C18.72 32.28 16.8 30.84 15.72 28.8ZM19.2 19.2H15.72C16.92 17.16 18.72 15.72 20.88 14.88C20.16 16.32 19.56 17.64 19.2 19.2ZM24 33.6C23.04 32.16 22.2 30.6 21.72 28.8H26.28C25.8 30.48 24.96 32.16 24 33.6ZM26.76 26.4H21.24C21.12 25.56 21 24.84 21 24C21 23.16 21.12 22.44 21.24 21.6H26.88C27 22.44 27.12 23.16 27.12 24C27.12 24.84 26.88 25.56 26.76 26.4ZM27.12 33.12C27.84 31.8 28.44 30.36 28.8 28.8H32.28C31.2 30.84 29.28 32.28 27.12 33.12ZM29.28 26.4C29.4 25.56 29.4 24.84 29.4 24C29.4 23.16 29.28 22.44 29.28 21.6H33.36C33.6 22.32 33.72 23.16 33.72 24C33.72 24.84 33.6 25.68 33.36 26.4H29.28Z" fill="#0073BE"/>
</svg>
