<svg width="203" height="64" viewBox="0 0 203 64" fill="none" xmlns="http://www.w3.org/2000/svg">
<path d="M107.623 47.3339C107.701 47.3339 107.72 47.2369 107.759 47.1593C108.186 46.0536 108.399 45.4716 108.399 45.4328C108.399 45.3164 108.341 45.2776 108.205 45.2776H99.3402C99.1462 45.2776 99.0298 45.3552 98.991 45.5104C98.5449 46.6161 98.3315 47.1787 98.3315 47.2175C98.3315 47.2757 98.3509 47.3145 98.3703 47.3339H107.623Z" fill="#23419B"/>
<path d="M107.623 47.3339C107.701 47.3339 107.72 47.2369 107.759 47.1593C108.186 46.0536 108.399 45.4716 108.399 45.4328C108.399 45.3164 108.341 45.2776 108.205 45.2776H99.3402C99.1462 45.2776 99.0298 45.3552 98.991 45.5104C98.5449 46.6161 98.3315 47.1787 98.3315 47.2175C98.3315 47.2757 98.3509 47.3145 98.3703 47.3339H107.623Z" fill="white"/>
<path d="M111.29 40.2146H100.776H99.1268H98.0405C95.9649 40.2146 93.6564 41.8053 92.8999 43.7451L90.9212 48.8857C90.1647 50.8256 91.251 52.4163 93.3461 52.4163H94.413H96.0813H106.576C106.77 52.4163 106.906 52.3387 106.964 52.1835L107.604 50.554C107.604 50.5152 107.604 50.4958 107.623 50.4764C107.623 50.36 107.546 50.3212 107.41 50.3212H97.2258C96.508 50.3212 96.1589 49.9721 96.1589 49.2931C96.1589 48.8081 96.3528 48.071 96.7602 47.0623L97.2064 45.8596C98.2151 42.9886 98.9911 42.3484 99.5924 42.3484H100.31H110.494C110.708 42.3484 110.805 42.2708 110.863 42.135C110.863 42.135 111.464 40.5831 111.484 40.4861C111.523 40.4086 111.503 40.3698 111.503 40.3504C111.464 40.2534 111.406 40.2146 111.29 40.2146Z" fill="#23419B"/>
<path d="M111.29 40.2146H100.776H99.1268H98.0405C95.9649 40.2146 93.6564 41.8053 92.8999 43.7451L90.9212 48.8857C90.1647 50.8256 91.251 52.4163 93.3461 52.4163H94.413H96.0813H106.576C106.77 52.4163 106.906 52.3387 106.964 52.1835L107.604 50.554C107.604 50.5152 107.604 50.4958 107.623 50.4764C107.623 50.36 107.546 50.3212 107.41 50.3212H97.2258C96.508 50.3212 96.1589 49.9721 96.1589 49.2931C96.1589 48.8081 96.3528 48.071 96.7602 47.0623L97.2064 45.8596C98.2151 42.9886 98.9911 42.3484 99.5924 42.3484H100.31H110.494C110.708 42.3484 110.805 42.2708 110.863 42.135C110.863 42.135 111.464 40.5831 111.484 40.4861C111.523 40.4086 111.503 40.3698 111.503 40.3504C111.464 40.2534 111.406 40.2146 111.29 40.2146Z" fill="white"/>
<path d="M153.268 40.2142H136.081C135.887 40.2142 135.771 40.2918 135.712 40.447C135.286 41.5721 135.072 42.1346 135.072 42.154C135.072 42.2704 135.15 42.3092 135.286 42.3092H141.241C140.581 44.0163 137.42 52.2413 137.42 52.2413C137.42 52.3383 137.478 52.3965 137.613 52.3965H142.23C142.405 52.3965 142.521 52.3189 142.58 52.1637L146.401 42.3092H152.473C152.667 42.3092 152.783 42.2316 152.841 42.0958C153.268 40.9901 153.482 40.4082 153.482 40.3694C153.482 40.2724 153.404 40.2142 153.268 40.2142Z" fill="#23419B"/>
<path d="M153.268 40.2142H136.081C135.887 40.2142 135.771 40.2918 135.712 40.447C135.286 41.5721 135.072 42.1346 135.072 42.154C135.072 42.2704 135.15 42.3092 135.286 42.3092H141.241C140.581 44.0163 137.42 52.2413 137.42 52.2413C137.42 52.3383 137.478 52.3965 137.613 52.3965H142.23C142.405 52.3965 142.521 52.3189 142.58 52.1637L146.401 42.3092H152.473C152.667 42.3092 152.783 42.2316 152.841 42.0958C153.268 40.9901 153.482 40.4082 153.482 40.3694C153.482 40.2724 153.404 40.2142 153.268 40.2142Z" fill="white"/>
<path d="M132.376 40.2142H119.398H118.118C116.935 40.2142 115.169 40.7573 114.394 42.7748L114.083 43.5701L113.812 44.3073C113.171 45.9562 113.967 47.2947 115.577 47.3335H123.685C124.481 47.3528 124.694 47.7602 124.461 48.3616L124.132 49.1957C123.802 50.0299 123.2 50.282 121.668 50.282H120.077H111.794C111.581 50.282 111.484 50.3596 111.426 50.4954L110.766 52.1831C110.708 52.3189 110.824 52.4159 110.96 52.4159H118.118H120.834H124.927C125.897 52.4159 126.925 52.1249 127.837 51.3684C128.225 51.0386 128.671 50.6506 129.001 49.7971C129.098 49.5643 129.466 48.575 129.486 48.5362C129.718 47.9154 129.912 47.3916 129.777 46.8291C129.68 46.4605 129.524 46.1695 129.253 45.8786C128.884 45.51 128.244 45.2384 127.643 45.2384C127.352 45.2384 126.576 45.2384 125.722 45.2384C125.722 45.2384 119.592 45.2384 119.418 45.2384C118.739 45.2384 118.719 44.7922 118.894 44.3073C119.088 43.8223 119.282 43.2791 119.282 43.2791C119.495 42.736 119.651 42.3286 120.368 42.3286C121.241 42.3286 131.542 42.3286 131.542 42.3286C131.755 42.3286 131.852 42.251 131.91 42.1152L132.551 40.4664C132.57 40.447 132.57 40.4276 132.57 40.3888C132.57 40.2724 132.512 40.2142 132.376 40.2142Z" fill="#23419B"/>
<path d="M132.376 40.2142H119.398H118.118C116.935 40.2142 115.169 40.7573 114.394 42.7748L114.083 43.5701L113.812 44.3073C113.171 45.9562 113.967 47.2947 115.577 47.3335H123.685C124.481 47.3528 124.694 47.7602 124.461 48.3616L124.132 49.1957C123.802 50.0299 123.2 50.282 121.668 50.282H120.077H111.794C111.581 50.282 111.484 50.3596 111.426 50.4954L110.766 52.1831C110.708 52.3189 110.824 52.4159 110.96 52.4159H118.118H120.834H124.927C125.897 52.4159 126.925 52.1249 127.837 51.3684C128.225 51.0386 128.671 50.6506 129.001 49.7971C129.098 49.5643 129.466 48.575 129.486 48.5362C129.718 47.9154 129.912 47.3916 129.777 46.8291C129.68 46.4605 129.524 46.1695 129.253 45.8786C128.884 45.51 128.244 45.2384 127.643 45.2384C127.352 45.2384 126.576 45.2384 125.722 45.2384C125.722 45.2384 119.592 45.2384 119.418 45.2384C118.739 45.2384 118.719 44.7922 118.894 44.3073C119.088 43.8223 119.282 43.2791 119.282 43.2791C119.495 42.736 119.651 42.3286 120.368 42.3286C121.241 42.3286 131.542 42.3286 131.542 42.3286C131.755 42.3286 131.852 42.251 131.91 42.1152L132.551 40.4664C132.57 40.447 132.57 40.4276 132.57 40.3888C132.57 40.2724 132.512 40.2142 132.376 40.2142Z" fill="white"/>
<path d="M161.804 40.2142H161.726H157.885H156.973C156.799 40.2142 156.682 40.2918 156.624 40.447C155.868 42.3868 152.124 52.1443 152.085 52.2413C152.046 52.3383 152.143 52.3965 152.279 52.3965H152.57H157.09C157.284 52.3965 157.4 52.3189 157.458 52.1637C157.711 51.5235 161.707 41.1453 161.978 40.4082C161.998 40.3888 161.998 40.3888 161.998 40.3888C162.017 40.35 161.998 40.3306 161.998 40.3112C161.978 40.253 161.901 40.2142 161.804 40.2142Z" fill="#23419B"/>
<path d="M161.804 40.2142H161.726H157.885H156.973C156.799 40.2142 156.682 40.2918 156.624 40.447C155.868 42.3868 152.124 52.1443 152.085 52.2413C152.046 52.3383 152.143 52.3965 152.279 52.3965H152.57H157.09C157.284 52.3965 157.4 52.3189 157.458 52.1637C157.711 51.5235 161.707 41.1453 161.978 40.4082C161.998 40.3888 161.998 40.3888 161.998 40.3888C162.017 40.35 161.998 40.3306 161.998 40.3112C161.978 40.253 161.901 40.2142 161.804 40.2142Z" fill="white"/>
<path d="M191.58 40.2143C191.58 40.2143 186.925 40.2143 186.886 40.2143C186.731 40.2143 186.673 40.3113 186.614 40.4664C186.42 40.9902 185.392 43.6866 184.345 46.4024L184.054 47.159C183.026 49.8166 181.493 50.2627 178.855 50.2821C178.37 50.9805 177.691 51.6982 176.721 52.319C177.012 52.3772 177.342 52.416 177.652 52.416H178.855H179.437H180.775C186.498 52.416 188.166 49.739 188.981 47.6051C188.981 47.5857 191.716 40.4858 191.755 40.4082C191.813 40.2725 191.716 40.2143 191.58 40.2143Z" fill="#23419B"/>
<path d="M191.58 40.2143C191.58 40.2143 186.925 40.2143 186.886 40.2143C186.731 40.2143 186.673 40.3113 186.614 40.4664C186.42 40.9902 185.392 43.6866 184.345 46.4024L184.054 47.159C183.026 49.8166 181.493 50.2627 178.855 50.2821C178.37 50.9805 177.691 51.6982 176.721 52.319C177.012 52.3772 177.342 52.416 177.652 52.416H178.855H179.437H180.775C186.498 52.416 188.166 49.739 188.981 47.6051C188.981 47.5857 191.716 40.4858 191.755 40.4082C191.813 40.2725 191.716 40.2143 191.58 40.2143Z" fill="white"/>
<path d="M181.183 40.2144C181.183 40.2144 176.527 40.2144 176.488 40.2144C176.333 40.2144 176.275 40.3114 176.217 40.4666C176.023 40.9904 174.995 43.6868 173.947 46.4026L173.656 47.1591C172.628 49.8361 171.677 50.3017 168.787 50.3211C168.089 50.3211 167.739 49.9719 167.739 49.293C167.739 48.905 167.933 48.3424 168.205 47.6247C169.485 44.3075 170.979 40.4084 170.979 40.389C170.979 40.2726 170.921 40.2338 170.785 40.2338H170.707H167.041H166.149C165.974 40.2338 165.858 40.3114 165.8 40.4666C165.392 41.5335 164.034 45.0253 162.909 47.9351C162.909 47.9545 162.909 47.9545 162.89 47.9738L162.521 48.905C161.784 50.8448 162.851 52.4161 164.927 52.4161H170.223H170.397C176.12 52.4161 177.788 49.7391 178.603 47.6053C178.603 47.5859 181.338 40.486 181.377 40.4084C181.396 40.2726 181.299 40.2144 181.183 40.2144Z" fill="#23419B"/>
<path d="M181.183 40.2144C181.183 40.2144 176.527 40.2144 176.488 40.2144C176.333 40.2144 176.275 40.3114 176.217 40.4666C176.023 40.9904 174.995 43.6868 173.947 46.4026L173.656 47.1591C172.628 49.8361 171.677 50.3017 168.787 50.3211C168.089 50.3211 167.739 49.9719 167.739 49.293C167.739 48.905 167.933 48.3424 168.205 47.6247C169.485 44.3075 170.979 40.4084 170.979 40.389C170.979 40.2726 170.921 40.2338 170.785 40.2338H170.707H167.041H166.149C165.974 40.2338 165.858 40.3114 165.8 40.4666C165.392 41.5335 164.034 45.0253 162.909 47.9351C162.909 47.9545 162.909 47.9545 162.89 47.9738L162.521 48.905C161.784 50.8448 162.851 52.4161 164.927 52.4161H170.223H170.397C176.12 52.4161 177.788 49.7391 178.603 47.6053C178.603 47.5859 181.338 40.486 181.377 40.4084C181.396 40.2726 181.299 40.2144 181.183 40.2144Z" fill="white"/>
<path d="M102.657 18.7606C102.735 18.7606 102.754 18.6636 102.793 18.586C103.22 17.4803 103.433 16.9177 103.433 16.8789C103.433 16.7819 103.375 16.7237 103.259 16.7237H94.6652C94.4712 16.7237 94.3548 16.8013 94.316 16.9565C93.8698 18.0428 93.6564 18.6248 93.6564 18.6442C93.6564 18.7024 93.6758 18.7412 93.6952 18.7606H102.657Z" fill="#23419B"/>
<path d="M102.657 18.7606C102.735 18.7606 102.754 18.6636 102.793 18.586C103.22 17.4803 103.433 16.9177 103.433 16.8789C103.433 16.7819 103.375 16.7237 103.259 16.7237H94.6652C94.4712 16.7237 94.3548 16.8013 94.316 16.9565C93.8698 18.0428 93.6564 18.6248 93.6564 18.6442C93.6564 18.7024 93.6758 18.7412 93.6952 18.7606H102.657Z" fill="white"/>
<path d="M110.514 16.2218L110.921 15.1937C111.658 13.2733 110.591 11.702 108.515 11.702H107.468H105.78H95.5572C95.3632 11.702 95.2274 11.7796 95.1692 11.9347L94.5485 13.5642C94.5485 13.603 94.5485 13.6224 94.5291 13.6418C94.5291 13.7388 94.6067 13.797 94.7425 13.797H104.616C105.315 13.797 105.683 14.1462 105.683 14.8251C105.683 15.3101 105.489 16.0472 105.082 17.056L104.636 18.2587C103.646 21.1103 102.87 21.7504 102.25 21.7504H101.551H91.6775C91.4641 21.7504 91.3671 21.828 91.3089 21.9638L90.6882 23.6127C90.6688 23.6321 90.6688 23.6515 90.6688 23.6903C90.6688 23.7873 90.727 23.8455 90.8627 23.8455H101.105H102.793H103.84C105.897 23.8455 108.205 22.2742 108.942 20.3537L109.544 18.7824C109.544 18.7631 109.544 18.763 109.563 18.7437C109.621 18.6079 109.699 18.3945 109.796 18.1423L110.417 16.5322C110.436 16.4158 110.455 16.3188 110.514 16.2218Z" fill="#23419B"/>
<path d="M110.514 16.2218L110.921 15.1937C111.658 13.2733 110.591 11.702 108.515 11.702H107.468H105.78H95.5572C95.3632 11.702 95.2274 11.7796 95.1692 11.9347L94.5485 13.5642C94.5485 13.603 94.5485 13.6224 94.5291 13.6418C94.5291 13.7388 94.6067 13.797 94.7425 13.797H104.616C105.315 13.797 105.683 14.1462 105.683 14.8251C105.683 15.3101 105.489 16.0472 105.082 17.056L104.636 18.2587C103.646 21.1103 102.87 21.7504 102.25 21.7504H101.551H91.6775C91.4641 21.7504 91.3671 21.828 91.3089 21.9638L90.6882 23.6127C90.6688 23.6321 90.6688 23.6515 90.6688 23.6903C90.6688 23.7873 90.727 23.8455 90.8627 23.8455H101.105H102.793H103.84C105.897 23.8455 108.205 22.2742 108.942 20.3537L109.544 18.7824C109.544 18.7631 109.544 18.763 109.563 18.7437C109.621 18.6079 109.699 18.3945 109.796 18.1423L110.417 16.5322C110.436 16.4158 110.455 16.3188 110.514 16.2218Z" fill="white"/>
<path d="M132.065 11.6797H121.804H120.155H119.068C117.012 11.6797 114.704 13.251 113.966 15.1715L111.988 20.2733C111.251 22.1937 112.318 23.765 114.393 23.765H115.46H117.128H127.39C127.584 23.765 127.72 23.6874 127.778 23.5323L128.399 21.9028C128.399 21.864 128.399 21.8446 128.418 21.8252C128.418 21.7282 128.341 21.67 128.205 21.67H118.273C117.575 21.67 117.206 21.3208 117.206 20.6419C117.206 20.1569 117.4 19.4198 117.807 18.411L118.254 17.2083C119.243 14.3567 120.019 13.7166 120.64 13.7166H121.338H131.27C131.483 13.7166 131.58 13.639 131.639 13.5032L132.259 11.8543C132.279 11.8349 132.279 11.8155 132.279 11.7767C132.259 11.7379 132.182 11.6797 132.065 11.6797Z" fill="#23419B"/>
<path d="M132.065 11.6797H121.804H120.155H119.068C117.012 11.6797 114.704 13.251 113.966 15.1715L111.988 20.2733C111.251 22.1937 112.318 23.765 114.393 23.765H115.46H117.128H127.39C127.584 23.765 127.72 23.6874 127.778 23.5323L128.399 21.9028C128.399 21.864 128.399 21.8446 128.418 21.8252C128.418 21.7282 128.341 21.67 128.205 21.67H118.273C117.575 21.67 117.206 21.3208 117.206 20.6419C117.206 20.1569 117.4 19.4198 117.807 18.411L118.254 17.2083C119.243 14.3567 120.019 13.7166 120.64 13.7166H121.338H131.27C131.483 13.7166 131.58 13.639 131.639 13.5032L132.259 11.8543C132.279 11.8349 132.279 11.8155 132.279 11.7767C132.259 11.7379 132.182 11.6797 132.065 11.6797Z" fill="white"/>
<path d="M151.716 11.6797H135.305C135.111 11.6797 134.995 11.7573 134.936 11.9125C134.51 13.0376 134.296 13.6002 134.296 13.6002C134.296 13.6972 134.374 13.7554 134.51 13.7554H140.097C139.437 15.4624 136.294 23.6098 136.294 23.6292C136.294 23.7262 136.353 23.7844 136.488 23.7844H141.066C141.241 23.7844 141.357 23.7068 141.416 23.5516L145.198 13.7554H150.902C151.076 13.7554 151.212 13.6778 151.27 13.542C151.697 12.4363 151.91 11.8737 151.91 11.8349C151.91 11.7379 151.833 11.6797 151.716 11.6797Z" fill="#23419B"/>
<path d="M151.716 11.6797H135.305C135.111 11.6797 134.995 11.7573 134.936 11.9125C134.51 13.0376 134.296 13.6002 134.296 13.6002C134.296 13.6972 134.374 13.7554 134.51 13.7554H140.097C139.437 15.4624 136.294 23.6098 136.294 23.6292C136.294 23.7262 136.353 23.7844 136.488 23.7844H141.066C141.241 23.7844 141.357 23.7068 141.416 23.5516L145.198 13.7554H150.902C151.076 13.7554 151.212 13.6778 151.27 13.542C151.697 12.4363 151.91 11.8737 151.91 11.8349C151.91 11.7379 151.833 11.6797 151.716 11.6797Z" fill="white"/>
<path d="M171.309 11.6797H165.974C165.897 11.6797 165.819 11.6991 165.78 11.7379C165.722 11.7767 156.624 19.6525 156.624 19.6525C156.624 19.6525 159.398 12.4751 159.495 12.2423C159.592 11.9707 159.65 11.8349 159.65 11.8349C159.65 11.7379 159.592 11.6797 159.476 11.6797H154.936C154.762 11.6797 154.645 11.7573 154.587 11.9125C153.85 13.833 150.067 23.6098 150.067 23.6292C150.067 23.7262 150.125 23.7844 150.261 23.7844H155.266C155.46 23.7844 155.557 23.7262 155.77 23.5516L164.927 15.6176L161.881 23.6292C161.881 23.7262 161.939 23.7844 162.056 23.7844H166.634C166.808 23.7844 166.944 23.7068 167.002 23.5516C167.254 22.8921 171.503 11.8543 171.503 11.8349C171.503 11.7379 171.444 11.6797 171.309 11.6797Z" fill="#23419B"/>
<path d="M171.309 11.6797H165.974C165.897 11.6797 165.819 11.6991 165.78 11.7379C165.722 11.7767 156.624 19.6525 156.624 19.6525C156.624 19.6525 159.398 12.4751 159.495 12.2423C159.592 11.9707 159.65 11.8349 159.65 11.8349C159.65 11.7379 159.592 11.6797 159.476 11.6797H154.936C154.762 11.6797 154.645 11.7573 154.587 11.9125C153.85 13.833 150.067 23.6098 150.067 23.6292C150.067 23.7262 150.125 23.7844 150.261 23.7844H155.266C155.46 23.7844 155.557 23.7262 155.77 23.5516L164.927 15.6176L161.881 23.6292C161.881 23.7262 161.939 23.7844 162.056 23.7844H166.634C166.808 23.7844 166.944 23.7068 167.002 23.5516C167.254 22.8921 171.503 11.8543 171.503 11.8349C171.503 11.7379 171.444 11.6797 171.309 11.6797Z" fill="white"/>
<path d="M190.979 15.8702C191.541 15.1913 191.813 14.4735 191.813 13.717C191.813 13.0186 191.561 12.4949 191.037 12.1069C190.591 11.8159 190.048 11.6607 189.388 11.6607H188.476H174.917C174.703 11.6607 174.587 11.7383 174.548 11.8935C173.578 14.3959 170.028 23.5909 170.028 23.6103C170.028 23.7073 170.086 23.7655 170.222 23.7655H174.762C174.762 23.7655 174.917 23.7655 175.014 23.6879C175.111 23.6103 175.15 23.4939 175.15 23.4939L175.848 21.6898L178.893 13.7364H185.993C186.653 13.7364 186.827 14.2407 186.595 14.8421L186.517 15.0167C186.284 15.6374 185.547 16.1224 184.888 16.1224H179.922C179.728 16.1224 179.592 16.2 179.534 16.3552L178.913 17.9653C178.913 17.9847 178.913 18.0041 178.893 18.0429C178.893 18.1399 178.971 18.1787 179.107 18.1787H185.12C185.78 18.1787 186.129 18.683 185.877 19.2844L185.392 20.5453C185.159 21.166 184.5 21.651 182.967 21.651H181.202H177.749C177.555 21.651 177.419 21.7286 177.361 21.8838L176.721 23.5327C176.721 23.5521 176.721 23.5715 176.701 23.6103C176.701 23.7267 176.779 23.7461 176.915 23.7461H176.992H185.838C187.041 23.7461 188.224 23.4357 189.136 22.6791C190.028 21.9614 190.261 21.2824 190.746 19.8663C190.94 19.3232 191.018 18.7412 190.882 18.1593C190.785 17.7907 190.63 17.4997 190.358 17.2087C190.203 17.0535 190.048 16.9178 189.873 16.8208C190.28 16.588 190.649 16.2582 190.979 15.8702Z" fill="#23419B"/>
<path d="M190.979 15.8702C191.541 15.1913 191.813 14.4735 191.813 13.717C191.813 13.0186 191.561 12.4949 191.037 12.1069C190.591 11.8159 190.048 11.6607 189.388 11.6607H188.476H174.917C174.703 11.6607 174.587 11.7383 174.548 11.8935C173.578 14.3959 170.028 23.5909 170.028 23.6103C170.028 23.7073 170.086 23.7655 170.222 23.7655H174.762C174.762 23.7655 174.917 23.7655 175.014 23.6879C175.111 23.6103 175.15 23.4939 175.15 23.4939L175.848 21.6898L178.893 13.7364H185.993C186.653 13.7364 186.827 14.2407 186.595 14.8421L186.517 15.0167C186.284 15.6374 185.547 16.1224 184.888 16.1224H179.922C179.728 16.1224 179.592 16.2 179.534 16.3552L178.913 17.9653C178.913 17.9847 178.913 18.0041 178.893 18.0429C178.893 18.1399 178.971 18.1787 179.107 18.1787H185.12C185.78 18.1787 186.129 18.683 185.877 19.2844L185.392 20.5453C185.159 21.166 184.5 21.651 182.967 21.651H181.202H177.749C177.555 21.651 177.419 21.7286 177.361 21.8838L176.721 23.5327C176.721 23.5521 176.721 23.5715 176.701 23.6103C176.701 23.7267 176.779 23.7461 176.915 23.7461H176.992H185.838C187.041 23.7461 188.224 23.4357 189.136 22.6791C190.028 21.9614 190.261 21.2824 190.746 19.8663C190.94 19.3232 191.018 18.7412 190.882 18.1593C190.785 17.7907 190.63 17.4997 190.358 17.2087C190.203 17.0535 190.048 16.9178 189.873 16.8208C190.28 16.588 190.649 16.2582 190.979 15.8702Z" fill="white"/>
<path d="M195.887 31.2536H86.537V32.7667H195.887V31.2536Z" fill="#5C2D91"/>
<path d="M195.887 31.2536H86.537V32.7667H195.887V31.2536Z" fill="white"/>
<path d="M22.6189 18.7219C24.9661 13.2515 31.3289 2.03913 44.6363 0.700627C44.6363 0.700627 25.1601 -0.793064 15.5966 18.7025C18.0796 19.2263 20.4463 19.1681 22.6189 18.7219Z" fill="#5C2D91"/>
<path d="M22.6189 18.7219C24.9661 13.2515 31.3289 2.03913 44.6363 0.700627C44.6363 0.700627 25.1601 -0.793064 15.5966 18.7025C18.0796 19.2263 20.4463 19.1681 22.6189 18.7219Z" fill="white"/>
<path d="M65.4897 45.3555C63.1425 50.8259 56.7798 62.0383 43.4724 63.3768C43.4724 63.3768 62.9485 64.8704 72.512 45.3749C70.0096 44.8511 67.643 44.9287 65.4897 45.3555Z" fill="#5C2D91"/>
<path d="M65.4897 45.3555C63.1425 50.8259 56.7798 62.0383 43.4724 63.3768C43.4724 63.3768 62.9485 64.8704 72.512 45.3749C70.0096 44.8511 67.643 44.9287 65.4897 45.3555Z" fill="white"/>
<path d="M75.5768 31.8735C75.5962 34.5117 75.2858 37.7125 73.9085 41.9414C67.9725 38.7988 61.765 36.4322 55.7708 34.9773C53.637 34.4535 47.6816 33.1538 42.8901 33.309C37.1094 33.4836 32.4925 35.2488 30.766 36.0248C22.1725 39.8657 16.6439 47.373 16.6439 47.373C16.6439 47.373 12.4926 40.3119 12.5314 32.2421C12.512 29.6039 13.0745 24.793 14.1802 22.1742C24.9077 27.9744 35.8097 30.438 43.2393 30.8066C49.5439 31.1169 55.2858 29.0413 57.3421 28.1102C65.1985 24.599 70.4555 18.0811 71.4643 16.762C72.279 18.1781 75.6156 24.599 75.5768 31.8735Z" fill="#5C2D91"/>
<path d="M75.5768 31.8735C75.5962 34.5117 75.2858 37.7125 73.9085 41.9414C67.9725 38.7988 61.765 36.4322 55.7708 34.9773C53.637 34.4535 47.6816 33.1538 42.8901 33.309C37.1094 33.4836 32.4925 35.2488 30.766 36.0248C22.1725 39.8657 16.6439 47.373 16.6439 47.373C16.6439 47.373 12.4926 40.3119 12.5314 32.2421C12.512 29.6039 13.0745 24.793 14.1802 22.1742C24.9077 27.9744 35.8097 30.438 43.2393 30.8066C49.5439 31.1169 55.2858 29.0413 57.3421 28.1102C65.1985 24.599 70.4555 18.0811 71.4643 16.762C72.279 18.1781 75.6156 24.599 75.5768 31.8735Z" fill="white"/>
<path d="M54.0057 40.1377C43.4529 41.8836 37.7303 48.4209 35.5382 50.6711C35.5382 50.6711 30.999 55.2492 28.8845 57.5188C26.7701 59.7885 23.0843 63.1444 18.4481 63.7652C25.8971 64.0756 35.4606 65.0843 42.3083 58.1202C44.2288 56.1609 47.4296 52.7856 49.2724 50.9427C52.803 47.3734 60.8534 40.7003 72.9969 44.289C72.9969 44.289 73.3073 43.5713 73.4625 43.1445C73.4431 43.1639 65.1211 38.2948 54.0057 40.1377ZM34.0833 23.8623C44.6362 22.1164 50.3588 15.5791 52.5508 13.3289C52.5508 13.3289 57.0901 8.7508 59.2045 6.48116C61.319 4.21153 65.0047 0.855575 69.6409 0.23482C62.1919 -0.0755572 52.6284 -1.08428 45.7807 5.87981C43.8602 7.83906 40.6595 11.2144 38.8166 13.0573C35.2861 16.6266 27.1774 23.2803 15.0533 19.6916C15.0533 19.6916 14.743 20.4481 14.5878 20.8361C14.6266 20.8361 22.9874 25.7052 34.0833 23.8623Z" fill="#0073BE"/>
<path d="M54.0057 40.1377C43.4529 41.8836 37.7303 48.4209 35.5382 50.6711C35.5382 50.6711 30.999 55.2492 28.8845 57.5188C26.7701 59.7885 23.0843 63.1444 18.4481 63.7652C25.8971 64.0756 35.4606 65.0843 42.3083 58.1202C44.2288 56.1609 47.4296 52.7856 49.2724 50.9427C52.803 47.3734 60.8534 40.7003 72.9969 44.289C72.9969 44.289 73.3073 43.5713 73.4625 43.1445C73.4431 43.1639 65.1211 38.2948 54.0057 40.1377ZM34.0833 23.8623C44.6362 22.1164 50.3588 15.5791 52.5508 13.3289C52.5508 13.3289 57.0901 8.7508 59.2045 6.48116C61.319 4.21153 65.0047 0.855575 69.6409 0.23482C62.1919 -0.0755572 52.6284 -1.08428 45.7807 5.87981C43.8602 7.83906 40.6595 11.2144 38.8166 13.0573C35.2861 16.6266 27.1774 23.2803 15.0533 19.6916C15.0533 19.6916 14.743 20.4481 14.5878 20.8361C14.6266 20.8361 22.9874 25.7052 34.0833 23.8623Z" fill="white"/>
<path d="M23.5305 44.0785C20.2909 47.2793 11.7555 56.1057 11.7555 56.1057C11.7555 56.1057 5.23762 63.7293 0 63.7293C6.45973 64.1949 17.1289 64.4664 22.5217 59.1512C27.9146 53.836 34.4131 47.2987 34.4131 47.2987C34.4131 47.2987 42.5799 38.1426 57.5944 37.7934C53.1133 36.4355 35.9456 31.8186 23.5305 44.0785ZM65.5866 4.8546C60.1938 10.1698 53.6953 16.7071 53.6953 16.7071C53.6953 16.7071 45.5285 25.8633 30.514 26.2124C34.995 27.5897 52.1628 32.2066 64.5973 19.9273C67.8368 16.7265 76.3722 7.90018 76.3722 7.90018C76.3722 7.90018 82.8901 0.276533 88.1277 0.276533C81.6292 -0.189033 70.9794 -0.460613 65.5866 4.8546Z" fill="#23419B"/>
<path d="M23.5305 44.0785C20.2909 47.2793 11.7555 56.1057 11.7555 56.1057C11.7555 56.1057 5.23762 63.7293 0 63.7293C6.45973 64.1949 17.1289 64.4664 22.5217 59.1512C27.9146 53.836 34.4131 47.2987 34.4131 47.2987C34.4131 47.2987 42.5799 38.1426 57.5944 37.7934C53.1133 36.4355 35.9456 31.8186 23.5305 44.0785ZM65.5866 4.8546C60.1938 10.1698 53.6953 16.7071 53.6953 16.7071C53.6953 16.7071 45.5285 25.8633 30.514 26.2124C34.995 27.5897 52.1628 32.2066 64.5973 19.9273C67.8368 16.7265 76.3722 7.90018 76.3722 7.90018C76.3722 7.90018 82.8901 0.276533 88.1277 0.276533C81.6292 -0.189033 70.9794 -0.460613 65.5866 4.8546Z" fill="white"/>
<path d="M197.264 15.4434H196.721V12.6113H195.751V12.1457H198.234V12.6113H197.264V15.4434Z" fill="#23419B"/>
<path d="M197.264 15.4434H196.721V12.6113H195.751V12.1457H198.234V12.6113H197.264V15.4434Z" fill="white"/>
<path d="M200.174 15.4434L199.223 12.6888H199.204C199.223 13.0961 199.243 13.4841 199.243 13.8333V15.4434H198.758V12.1456H199.514L200.426 14.7644H200.446L201.396 12.1456H202.153V15.4434H201.629V13.8139C201.629 13.6587 201.629 13.4453 201.648 13.1737C201.648 12.9021 201.668 12.747 201.668 12.6888H201.648L200.659 15.4434H200.174Z" fill="#23419B"/>
<path d="M200.174 15.4434L199.223 12.6888H199.204C199.223 13.0961 199.243 13.4841 199.243 13.8333V15.4434H198.758V12.1456H199.514L200.426 14.7644H200.446L201.396 12.1456H202.153V15.4434H201.629V13.8139C201.629 13.6587 201.629 13.4453 201.648 13.1737C201.648 12.9021 201.668 12.747 201.668 12.6888H201.648L200.659 15.4434H200.174Z" fill="white"/>
</svg>
